<svg viewBox="20 5 80 100" xmlns="http://www.w3.org/2000/svg">
  <defs>
    <linearGradient id="purplePinkGradient" x1="0%" y1="0%" x2="100%" y2="100%">
      <stop offset="0%" style="stop-color:#8b5cf6;stop-opacity:1" />
      <stop offset="100%" style="stop-color:#ec4899;stop-opacity:1" />
    </linearGradient>
    <linearGradient id="lightGradient" x1="0%" y1="0%" x2="100%" y2="100%">
      <stop offset="0%" style="stop-color:#a855f7;stop-opacity:1" />
      <stop offset="100%" style="stop-color:#f472b6;stop-opacity:1" />
    </linearGradient>
  </defs>
  <rect x="28" y="36" width="64" height="64" rx="20" fill="url(#purplePinkGradient)" />
  <circle cx="44" cy="60" r="10" fill="#fff" />
  <circle cx="76" cy="60" r="10" fill="#fff" />
  <circle cx="44" cy="60" r="4" fill="#6b21a8" />
  <circle cx="76" cy="60" r="4" fill="#6b21a8" />
  <path d="M50 84c6 6 18 6 24 0" stroke="#fff" strokeWidth="4" strokeLinecap="round" fill="none" />
  <rect x="50" y="22" width="20" height="18" rx="9" fill="url(#lightGradient)" />
  <path d="M60 18v6" stroke="#a855f7" strokeWidth="4" strokeLinecap="round" />
  <circle cx="60" cy="14" r="5" fill="#f9a8d4" />
  <rect x="31" y="46" width="26" height="28" rx="13" stroke="#f9a8d4" strokeWidth="3.5" fill="none" />
  <rect x="63" y="46" width="26" height="28" rx="13" stroke="#f9a8d4" strokeWidth="3.5" fill="none" />
  <rect x="55" y="60" width="10" height="8" rx="4" fill="#f9a8d4" />
  <circle cx="32" cy="92" r="6" fill="#a855f7" opacity="0.7" />
  <circle cx="88" cy="92" r="6" fill="#a855f7" opacity="0.7" />
</svg>
