<svg width="420" height="420" viewBox="0 0 420 420" fill="none" xmlns="http://www.w3.org/2000/svg" role="img" aria-labelledby="assistantBlobLogoTitle">
  <title id="assistantBlobLogoTitle">blipee Assistant Logo</title>
  <defs>
    <linearGradient id="assistantBlobGradient" x1="120" y1="70" x2="320" y2="320" gradientUnits="userSpaceOnUse">
      <stop offset="0" stop-color="#10B981" />
      <stop offset="1" stop-color="#0EA5E9" />
    </linearGradient>
    <linearGradient id="assistantAntennaGradient" x1="210" y1="110" x2="210" y2="160" gradientUnits="userSpaceOnUse">
      <stop offset="0" stop-color="#6EE7B7" />
      <stop offset="1" stop-color="#34D399" />
    </linearGradient>
  </defs>

  <path
    d="M213 60C280 56 346 110 352 180C358 250 304 324 232 342C160 360 78 322 60 260C42 198 82 120 140 88C176 68 200 61 213 60Z"
    fill="url(#assistantBlobGradient)"
  />

  <g>
    <rect x="140" y="188" width="140" height="140" rx="44" fill="#10B981" />

    <circle cx="180" cy="258" r="26" fill="white" />
    <circle cx="240" cy="258" r="26" fill="white" />
    <circle cx="180" cy="258" r="10" fill="#047857" />
    <circle cx="240" cy="258" r="10" fill="#047857" />

    <path d="M194 320C210 336 230 336 246 320" stroke="white" stroke-width="8" stroke-linecap="round" />

    <rect x="198" y="142" width="24" height="48" rx="12" fill="url(#assistantAntennaGradient)" />
    <path d="M210 142V118" stroke="#34D399" stroke-width="8" stroke-linecap="round" />
    <circle cx="210" cy="104" r="14" fill="#6EE7B7" />

    <rect x="148" y="230" width="44" height="44" rx="20" stroke="#BBF7D0" stroke-width="5" fill="none" />
    <rect x="228" y="230" width="44" height="44" rx="20" stroke="#BBF7D0" stroke-width="5" fill="none" />
    <rect x="204" y="252" width="16" height="12" rx="6" fill="#BBF7D0" />

    <circle cx="164" cy="326" r="14" fill="#22C55E" opacity="0.75" />
    <circle cx="256" cy="326" r="14" fill="#22C55E" opacity="0.75" />
  </g>
</svg>
